<svg xmlns="http://www.w3.org/2000/svg" enable-background="new 0 0 32 32" viewBox="0 0 32 32" id="medical-cart">
  <path d="M27 20H14c-.3926 0-.748-.229-.9102-.5864L8.3564 9H3C2.4473 9 2 8.5522 2 8s.4473-1 1-1h6c.3926 0 .748.229.9102.5864L14.6436 18h11.5371l1.5996-8H13c-.5527 0-1-.4478-1-1s.4473-1 1-1h16c.2998 0 .583.1343.7734.3662.1895.2314.2656.5361.207.8301l-2 10C27.8867 19.6636 27.4766 20 27 20zM17.5 25c-1.3789 0-2.5-1.1216-2.5-2.5s1.1211-2.5 2.5-2.5 2.5 1.1216 2.5 2.5S18.8789 25 17.5 25zM17.5 22c-.2754 0-.5.2241-.5.5s.2246.5.5.5.5-.2241.5-.5S17.7754 22 17.5 22zM23.5 25c-1.3789 0-2.5-1.1216-2.5-2.5s1.1211-2.5 2.5-2.5 2.5 1.1216 2.5 2.5S24.8789 25 23.5 25zM23.5 22c-.2754 0-.5.2241-.5.5s.2246.5.5.5.5-.2241.5-.5S23.7754 22 23.5 22z"></path>
  <path d="M20,17c-0.5527,0-1-0.4478-1-1v-4c0-0.5522,0.4473-1,1-1s1,0.4478,1,1v4C21,16.5522,20.5527,17,20,17z"></path>
  <path d="M22,15h-4c-0.5527,0-1-0.4478-1-1s0.4473-1,1-1h4c0.5527,0,1,0.4478,1,1S22.5527,15,22,15z"></path>
</svg>
